#tb 0: 1/25
#tb 1: 1/48000
0,          0,          0,        1, 12441600, 0x627d1548
1,          0,          0,     1024,     4096, 0x00000000
1,       1024,       1024,      896,     3584, 0x00000000
